<svg version="1.1" xmlns:xlink="http://www.w3.org/1999/xlink" xmlns="http://www.w3.org/2000/svg" height="512" width="512">
<line x1="239" y1="438" x2="255" y2="429" style="stroke:rgb(0,0,0);stroke-width:1" />
<line x1="255" y1="429" x2="257" y2="443" style="stroke:rgb(0,0,0);stroke-width:1" />
<line x1="257" y1="443" x2="239" y2="438" style="stroke:rgb(0,0,0);stroke-width:1" />
<line x1="247" y1="404" x2="264" y2="418" style="stroke:rgb(0,0,0);stroke-width:1" />
<line x1="264" y1="418" x2="255" y2="429" style="stroke:rgb(0,0,0);stroke-width:1" />
<line x1="255" y1="429" x2="247" y2="404" style="stroke:rgb(0,0,0);stroke-width:1" />
<line x1="281" y1="407" x2="272" y2="431" style="stroke:rgb(0,0,0);stroke-width:1" />
<line x1="272" y1="431" x2="264" y2="418" style="stroke:rgb(0,0,0);stroke-width:1" />
<line x1="264" y1="418" x2="281" y2="407" style="stroke:rgb(0,0,0);stroke-width:1" />
<line x1="291" y1="446" x2="271" y2="446" style="stroke:rgb(0,0,0);stroke-width:1" />
<line x1="271" y1="446" x2="272" y2="431" style="stroke:rgb(0,0,0);stroke-width:1" />
<line x1="272" y1="431" x2="291" y2="446" style="stroke:rgb(0,0,0);stroke-width:1" />
<line x1="264" y1="471" x2="257" y2="443" style="stroke:rgb(0,0,0);stroke-width:1" />
<line x1="257" y1="443" x2="271" y2="446" style="stroke:rgb(0,0,0);stroke-width:1" />
<line x1="271" y1="446" x2="264" y2="471" style="stroke:rgb(0,0,0);stroke-width:1" />
<line x1="264" y1="418" x2="272" y2="431" style="stroke:rgb(0,0,0);stroke-width:1" />
<line x1="272" y1="431" x2="255" y2="429" style="stroke:rgb(0,0,0);stroke-width:1" />
<line x1="255" y1="429" x2="264" y2="418" style="stroke:rgb(0,0,0);stroke-width:1" />
<line x1="255" y1="429" x2="272" y2="431" style="stroke:rgb(0,0,0);stroke-width:1" />
<line x1="272" y1="431" x2="257" y2="443" style="stroke:rgb(0,0,0);stroke-width:1" />
<line x1="257" y1="443" x2="255" y2="429" style="stroke:rgb(0,0,0);stroke-width:1" />
<line x1="257" y1="443" x2="272" y2="431" style="stroke:rgb(0,0,0);stroke-width:1" />
<line x1="272" y1="431" x2="271" y2="446" style="stroke:rgb(0,0,0);stroke-width:1" />
<line x1="271" y1="446" x2="257" y2="443" style="stroke:rgb(0,0,0);stroke-width:1" />
<line x1="263" y1="416" x2="263" y2="376" style="stroke:rgb(0,0,0);stroke-width:1" />
<line x1="263" y1="376" x2="291" y2="376" style="stroke:rgb(0,0,0);stroke-width:1" />
<line x1="291" y1="376" x2="263" y2="416" style="stroke:rgb(0,0,0);stroke-width:1" />
<line x1="263" y1="376" x2="273" y2="363" style="stroke:rgb(0,0,0);stroke-width:1" />
<line x1="273" y1="363" x2="291" y2="376" style="stroke:rgb(0,0,0);stroke-width:1" />
<line x1="291" y1="376" x2="263" y2="376" style="stroke:rgb(0,0,0);stroke-width:1" />
<line x1="273" y1="363" x2="263" y2="376" style="stroke:rgb(0,0,0);stroke-width:1" />
<line x1="263" y1="376" x2="273" y2="363" style="stroke:rgb(0,0,0);stroke-width:1" />
<line x1="273" y1="363" x2="273" y2="363" style="stroke:rgb(0,0,0);stroke-width:1" />
<line x1="263" y1="376" x2="263" y2="363" style="stroke:rgb(0,0,0);stroke-width:1" />
<line x1="263" y1="363" x2="273" y2="363" style="stroke:rgb(0,0,0);stroke-width:1" />
<line x1="273" y1="363" x2="263" y2="376" style="stroke:rgb(0,0,0);stroke-width:1" />
<line x1="273" y1="363" x2="263" y2="329" style="stroke:rgb(0,0,0);stroke-width:1" />
<line x1="263" y1="329" x2="305" y2="326" style="stroke:rgb(0,0,0);stroke-width:1" />
<line x1="305" y1="326" x2="273" y2="363" style="stroke:rgb(0,0,0);stroke-width:1" />
<line x1="263" y1="363" x2="263" y2="329" style="stroke:rgb(0,0,0);stroke-width:1" />
<line x1="263" y1="329" x2="273" y2="363" style="stroke:rgb(0,0,0);stroke-width:1" />
<line x1="273" y1="363" x2="263" y2="363" style="stroke:rgb(0,0,0);stroke-width:1" />
<line x1="263" y1="329" x2="288" y2="315" style="stroke:rgb(0,0,0);stroke-width:1" />
<line x1="288" y1="315" x2="305" y2="326" style="stroke:rgb(0,0,0);stroke-width:1" />
<line x1="305" y1="326" x2="263" y2="329" style="stroke:rgb(0,0,0);stroke-width:1" />
<line x1="263" y1="329" x2="262" y2="318" style="stroke:rgb(0,0,0);stroke-width:1" />
<line x1="262" y1="318" x2="288" y2="315" style="stroke:rgb(0,0,0);stroke-width:1" />
<line x1="288" y1="315" x2="263" y2="329" style="stroke:rgb(0,0,0);stroke-width:1" />
<line x1="288" y1="315" x2="262" y2="288" style="stroke:rgb(0,0,0);stroke-width:1" />
<line x1="262" y1="288" x2="318" y2="279" style="stroke:rgb(0,0,0);stroke-width:1" />
<line x1="318" y1="279" x2="288" y2="315" style="stroke:rgb(0,0,0);stroke-width:1" />
<line x1="262" y1="318" x2="262" y2="288" style="stroke:rgb(0,0,0);stroke-width:1" />
<line x1="262" y1="288" x2="288" y2="315" style="stroke:rgb(0,0,0);stroke-width:1" />
<line x1="288" y1="315" x2="262" y2="318" style="stroke:rgb(0,0,0);stroke-width:1" />
<line x1="262" y1="288" x2="301" y2="272" style="stroke:rgb(0,0,0);stroke-width:1" />
<line x1="301" y1="272" x2="318" y2="279" style="stroke:rgb(0,0,0);stroke-width:1" />
<line x1="318" y1="279" x2="262" y2="288" style="stroke:rgb(0,0,0);stroke-width:1" />
<line x1="262" y1="288" x2="262" y2="278" style="stroke:rgb(0,0,0);stroke-width:1" />
<line x1="262" y1="278" x2="301" y2="272" style="stroke:rgb(0,0,0);stroke-width:1" />
<line x1="301" y1="272" x2="262" y2="288" style="stroke:rgb(0,0,0);stroke-width:1" />
<line x1="301" y1="272" x2="262" y2="251" style="stroke:rgb(0,0,0);stroke-width:1" />
<line x1="262" y1="251" x2="331" y2="236" style="stroke:rgb(0,0,0);stroke-width:1" />
<line x1="331" y1="236" x2="301" y2="272" style="stroke:rgb(0,0,0);stroke-width:1" />
<line x1="262" y1="278" x2="262" y2="251" style="stroke:rgb(0,0,0);stroke-width:1" />
<line x1="262" y1="251" x2="301" y2="272" style="stroke:rgb(0,0,0);stroke-width:1" />
<line x1="301" y1="272" x2="262" y2="278" style="stroke:rgb(0,0,0);stroke-width:1" />
<line x1="262" y1="251" x2="314" y2="230" style="stroke:rgb(0,0,0);stroke-width:1" />
<line x1="314" y1="230" x2="331" y2="236" style="stroke:rgb(0,0,0);stroke-width:1" />
<line x1="331" y1="236" x2="262" y2="251" style="stroke:rgb(0,0,0);stroke-width:1" />
<line x1="262" y1="251" x2="262" y2="243" style="stroke:rgb(0,0,0);stroke-width:1" />
<line x1="262" y1="243" x2="314" y2="230" style="stroke:rgb(0,0,0);stroke-width:1" />
<line x1="314" y1="230" x2="262" y2="251" style="stroke:rgb(0,0,0);stroke-width:1" />
<line x1="301" y1="272" x2="262" y2="251" style="stroke:rgb(0,0,0);stroke-width:1" />
<line x1="262" y1="251" x2="331" y2="236" style="stroke:rgb(0,0,0);stroke-width:1" />
<line x1="331" y1="236" x2="301" y2="272" style="stroke:rgb(0,0,0);stroke-width:1" />
<line x1="314" y1="230" x2="261" y2="212" style="stroke:rgb(0,0,0);stroke-width:1" />
<line x1="261" y1="212" x2="349" y2="185" style="stroke:rgb(0,0,0);stroke-width:1" />
<line x1="349" y1="185" x2="314" y2="230" style="stroke:rgb(0,0,0);stroke-width:1" />
<line x1="262" y1="243" x2="261" y2="212" style="stroke:rgb(0,0,0);stroke-width:1" />
<line x1="261" y1="212" x2="314" y2="230" style="stroke:rgb(0,0,0);stroke-width:1" />
<line x1="314" y1="230" x2="262" y2="243" style="stroke:rgb(0,0,0);stroke-width:1" />
<line x1="261" y1="212" x2="332" y2="182" style="stroke:rgb(0,0,0);stroke-width:1" />
<line x1="332" y1="182" x2="349" y2="185" style="stroke:rgb(0,0,0);stroke-width:1" />
<line x1="349" y1="185" x2="261" y2="212" style="stroke:rgb(0,0,0);stroke-width:1" />
<line x1="261" y1="212" x2="261" y2="204" style="stroke:rgb(0,0,0);stroke-width:1" />
<line x1="261" y1="204" x2="332" y2="182" style="stroke:rgb(0,0,0);stroke-width:1" />
<line x1="332" y1="182" x2="261" y2="212" style="stroke:rgb(0,0,0);stroke-width:1" />
<line x1="332" y1="182" x2="261" y2="177" style="stroke:rgb(0,0,0);stroke-width:1" />
<line x1="261" y1="177" x2="366" y2="137" style="stroke:rgb(0,0,0);stroke-width:1" />
<line x1="366" y1="137" x2="332" y2="182" style="stroke:rgb(0,0,0);stroke-width:1" />
<line x1="261" y1="204" x2="261" y2="177" style="stroke:rgb(0,0,0);stroke-width:1" />
<line x1="261" y1="177" x2="332" y2="182" style="stroke:rgb(0,0,0);stroke-width:1" />
<line x1="332" y1="182" x2="261" y2="204" style="stroke:rgb(0,0,0);stroke-width:1" />
<line x1="261" y1="177" x2="349" y2="136" style="stroke:rgb(0,0,0);stroke-width:1" />
<line x1="349" y1="136" x2="366" y2="137" style="stroke:rgb(0,0,0);stroke-width:1" />
<line x1="366" y1="137" x2="261" y2="177" style="stroke:rgb(0,0,0);stroke-width:1" />
<line x1="261" y1="177" x2="261" y2="170" style="stroke:rgb(0,0,0);stroke-width:1" />
<line x1="261" y1="170" x2="349" y2="136" style="stroke:rgb(0,0,0);stroke-width:1" />
<line x1="349" y1="136" x2="261" y2="177" style="stroke:rgb(0,0,0);stroke-width:1" />
<line x1="261" y1="170" x2="382" y2="93" style="stroke:rgb(0,0,0);stroke-width:1" />
<line x1="382" y1="93" x2="349" y2="136" style="stroke:rgb(0,0,0);stroke-width:1" />
<line x1="349" y1="136" x2="261" y2="170" style="stroke:rgb(0,0,0);stroke-width:1" />
<line x1="261" y1="170" x2="274" y2="153" style="stroke:rgb(0,0,0);stroke-width:1" />
<line x1="274" y1="153" x2="382" y2="93" style="stroke:rgb(0,0,0);stroke-width:1" />
<line x1="382" y1="93" x2="261" y2="170" style="stroke:rgb(0,0,0);stroke-width:1" />
<line x1="261" y1="170" x2="261" y2="157" style="stroke:rgb(0,0,0);stroke-width:1" />
<line x1="261" y1="157" x2="274" y2="153" style="stroke:rgb(0,0,0);stroke-width:1" />
<line x1="274" y1="153" x2="261" y2="170" style="stroke:rgb(0,0,0);stroke-width:1" />
<line x1="261" y1="157" x2="284" y2="130" style="stroke:rgb(0,0,0);stroke-width:1" />
<line x1="284" y1="130" x2="274" y2="153" style="stroke:rgb(0,0,0);stroke-width:1" />
<line x1="274" y1="153" x2="261" y2="157" style="stroke:rgb(0,0,0);stroke-width:1" />
<line x1="261" y1="157" x2="261" y2="140" style="stroke:rgb(0,0,0);stroke-width:1" />
<line x1="261" y1="140" x2="284" y2="130" style="stroke:rgb(0,0,0);stroke-width:1" />
<line x1="284" y1="130" x2="261" y2="157" style="stroke:rgb(0,0,0);stroke-width:1" />
<line x1="263" y1="416" x2="238" y2="375" style="stroke:rgb(0,0,0);stroke-width:1" />
<line x1="238" y1="375" x2="263" y2="376" style="stroke:rgb(0,0,0);stroke-width:1" />
<line x1="263" y1="376" x2="263" y2="416" style="stroke:rgb(0,0,0);stroke-width:1" />
<line x1="263" y1="376" x2="238" y2="375" style="stroke:rgb(0,0,0);stroke-width:1" />
<line x1="238" y1="375" x2="253" y2="363" style="stroke:rgb(0,0,0);stroke-width:1" />
<line x1="253" y1="363" x2="263" y2="376" style="stroke:rgb(0,0,0);stroke-width:1" />
<line x1="253" y1="363" x2="263" y2="363" style="stroke:rgb(0,0,0);stroke-width:1" />
<line x1="263" y1="363" x2="253" y2="363" style="stroke:rgb(0,0,0);stroke-width:1" />
<line x1="253" y1="363" x2="253" y2="363" style="stroke:rgb(0,0,0);stroke-width:1" />
<line x1="263" y1="376" x2="253" y2="363" style="stroke:rgb(0,0,0);stroke-width:1" />
<line x1="253" y1="363" x2="263" y2="363" style="stroke:rgb(0,0,0);stroke-width:1" />
<line x1="263" y1="363" x2="263" y2="376" style="stroke:rgb(0,0,0);stroke-width:1" />
<line x1="253" y1="363" x2="226" y2="332" style="stroke:rgb(0,0,0);stroke-width:1" />
<line x1="226" y1="332" x2="263" y2="329" style="stroke:rgb(0,0,0);stroke-width:1" />
<line x1="263" y1="329" x2="253" y2="363" style="stroke:rgb(0,0,0);stroke-width:1" />
<line x1="263" y1="363" x2="253" y2="363" style="stroke:rgb(0,0,0);stroke-width:1" />
<line x1="253" y1="363" x2="263" y2="329" style="stroke:rgb(0,0,0);stroke-width:1" />
<line x1="263" y1="329" x2="263" y2="363" style="stroke:rgb(0,0,0);stroke-width:1" />
<line x1="263" y1="329" x2="226" y2="332" style="stroke:rgb(0,0,0);stroke-width:1" />
<line x1="226" y1="332" x2="239" y2="320" style="stroke:rgb(0,0,0);stroke-width:1" />
<line x1="239" y1="320" x2="263" y2="329" style="stroke:rgb(0,0,0);stroke-width:1" />
<line x1="263" y1="329" x2="239" y2="320" style="stroke:rgb(0,0,0);stroke-width:1" />
<line x1="239" y1="320" x2="262" y2="318" style="stroke:rgb(0,0,0);stroke-width:1" />
<line x1="262" y1="318" x2="263" y2="329" style="stroke:rgb(0,0,0);stroke-width:1" />
<line x1="239" y1="320" x2="217" y2="295" style="stroke:rgb(0,0,0);stroke-width:1" />
<line x1="217" y1="295" x2="262" y2="288" style="stroke:rgb(0,0,0);stroke-width:1" />
<line x1="262" y1="288" x2="239" y2="320" style="stroke:rgb(0,0,0);stroke-width:1" />
<line x1="262" y1="318" x2="239" y2="320" style="stroke:rgb(0,0,0);stroke-width:1" />
<line x1="239" y1="320" x2="262" y2="288" style="stroke:rgb(0,0,0);stroke-width:1" />
<line x1="262" y1="288" x2="262" y2="318" style="stroke:rgb(0,0,0);stroke-width:1" />
<line x1="262" y1="288" x2="217" y2="295" style="stroke:rgb(0,0,0);stroke-width:1" />
<line x1="217" y1="295" x2="228" y2="284" style="stroke:rgb(0,0,0);stroke-width:1" />
<line x1="228" y1="284" x2="262" y2="288" style="stroke:rgb(0,0,0);stroke-width:1" />
<line x1="262" y1="288" x2="228" y2="284" style="stroke:rgb(0,0,0);stroke-width:1" />
<line x1="228" y1="284" x2="262" y2="278" style="stroke:rgb(0,0,0);stroke-width:1" />
<line x1="262" y1="278" x2="262" y2="288" style="stroke:rgb(0,0,0);stroke-width:1" />
<line x1="228" y1="284" x2="208" y2="264" style="stroke:rgb(0,0,0);stroke-width:1" />
<line x1="208" y1="264" x2="262" y2="251" style="stroke:rgb(0,0,0);stroke-width:1" />
<line x1="262" y1="251" x2="228" y2="284" style="stroke:rgb(0,0,0);stroke-width:1" />
<line x1="262" y1="278" x2="228" y2="284" style="stroke:rgb(0,0,0);stroke-width:1" />
<line x1="228" y1="284" x2="262" y2="251" style="stroke:rgb(0,0,0);stroke-width:1" />
<line x1="262" y1="251" x2="262" y2="278" style="stroke:rgb(0,0,0);stroke-width:1" />
<line x1="262" y1="251" x2="208" y2="264" style="stroke:rgb(0,0,0);stroke-width:1" />
<line x1="208" y1="264" x2="218" y2="254" style="stroke:rgb(0,0,0);stroke-width:1" />
<line x1="218" y1="254" x2="262" y2="251" style="stroke:rgb(0,0,0);stroke-width:1" />
<line x1="262" y1="251" x2="218" y2="254" style="stroke:rgb(0,0,0);stroke-width:1" />
<line x1="218" y1="254" x2="262" y2="243" style="stroke:rgb(0,0,0);stroke-width:1" />
<line x1="262" y1="243" x2="262" y2="251" style="stroke:rgb(0,0,0);stroke-width:1" />
<line x1="228" y1="284" x2="208" y2="264" style="stroke:rgb(0,0,0);stroke-width:1" />
<line x1="208" y1="264" x2="262" y2="251" style="stroke:rgb(0,0,0);stroke-width:1" />
<line x1="262" y1="251" x2="228" y2="284" style="stroke:rgb(0,0,0);stroke-width:1" />
<line x1="218" y1="254" x2="196" y2="232" style="stroke:rgb(0,0,0);stroke-width:1" />
<line x1="196" y1="232" x2="261" y2="212" style="stroke:rgb(0,0,0);stroke-width:1" />
<line x1="261" y1="212" x2="218" y2="254" style="stroke:rgb(0,0,0);stroke-width:1" />
<line x1="262" y1="243" x2="218" y2="254" style="stroke:rgb(0,0,0);stroke-width:1" />
<line x1="218" y1="254" x2="261" y2="212" style="stroke:rgb(0,0,0);stroke-width:1" />
<line x1="261" y1="212" x2="262" y2="243" style="stroke:rgb(0,0,0);stroke-width:1" />
<line x1="261" y1="212" x2="196" y2="232" style="stroke:rgb(0,0,0);stroke-width:1" />
<line x1="196" y1="232" x2="206" y2="222" style="stroke:rgb(0,0,0);stroke-width:1" />
<line x1="206" y1="222" x2="261" y2="212" style="stroke:rgb(0,0,0);stroke-width:1" />
<line x1="261" y1="212" x2="206" y2="222" style="stroke:rgb(0,0,0);stroke-width:1" />
<line x1="206" y1="222" x2="261" y2="204" style="stroke:rgb(0,0,0);stroke-width:1" />
<line x1="261" y1="204" x2="261" y2="212" style="stroke:rgb(0,0,0);stroke-width:1" />
<line x1="206" y1="222" x2="187" y2="205" style="stroke:rgb(0,0,0);stroke-width:1" />
<line x1="187" y1="205" x2="261" y2="177" style="stroke:rgb(0,0,0);stroke-width:1" />
<line x1="261" y1="177" x2="206" y2="222" style="stroke:rgb(0,0,0);stroke-width:1" />
<line x1="261" y1="204" x2="206" y2="222" style="stroke:rgb(0,0,0);stroke-width:1" />
<line x1="206" y1="222" x2="261" y2="177" style="stroke:rgb(0,0,0);stroke-width:1" />
<line x1="261" y1="177" x2="261" y2="204" style="stroke:rgb(0,0,0);stroke-width:1" />
<line x1="261" y1="177" x2="187" y2="205" style="stroke:rgb(0,0,0);stroke-width:1" />
<line x1="187" y1="205" x2="196" y2="196" style="stroke:rgb(0,0,0);stroke-width:1" />
<line x1="196" y1="196" x2="261" y2="177" style="stroke:rgb(0,0,0);stroke-width:1" />
<line x1="261" y1="177" x2="196" y2="196" style="stroke:rgb(0,0,0);stroke-width:1" />
<line x1="196" y1="196" x2="261" y2="170" style="stroke:rgb(0,0,0);stroke-width:1" />
<line x1="261" y1="170" x2="261" y2="177" style="stroke:rgb(0,0,0);stroke-width:1" />
<line x1="261" y1="170" x2="196" y2="196" style="stroke:rgb(0,0,0);stroke-width:1" />
<line x1="196" y1="196" x2="179" y2="182" style="stroke:rgb(0,0,0);stroke-width:1" />
<line x1="179" y1="182" x2="261" y2="170" style="stroke:rgb(0,0,0);stroke-width:1" />
<line x1="261" y1="170" x2="179" y2="182" style="stroke:rgb(0,0,0);stroke-width:1" />
<line x1="179" y1="182" x2="248" y2="163" style="stroke:rgb(0,0,0);stroke-width:1" />
<line x1="248" y1="163" x2="261" y2="170" style="stroke:rgb(0,0,0);stroke-width:1" />
<line x1="261" y1="170" x2="248" y2="163" style="stroke:rgb(0,0,0);stroke-width:1" />
<line x1="248" y1="163" x2="261" y2="157" style="stroke:rgb(0,0,0);stroke-width:1" />
<line x1="261" y1="157" x2="261" y2="170" style="stroke:rgb(0,0,0);stroke-width:1" />
<line x1="261" y1="157" x2="248" y2="163" style="stroke:rgb(0,0,0);stroke-width:1" />
<line x1="248" y1="163" x2="239" y2="150" style="stroke:rgb(0,0,0);stroke-width:1" />
<line x1="239" y1="150" x2="261" y2="157" style="stroke:rgb(0,0,0);stroke-width:1" />
<line x1="261" y1="157" x2="239" y2="150" style="stroke:rgb(0,0,0);stroke-width:1" />
<line x1="239" y1="150" x2="261" y2="140" style="stroke:rgb(0,0,0);stroke-width:1" />
<line x1="261" y1="140" x2="261" y2="157" style="stroke:rgb(0,0,0);stroke-width:1" />
<line x1="264" y1="416" x2="263" y2="376" style="stroke:rgb(0,0,0);stroke-width:1" />
<line x1="263" y1="376" x2="276" y2="375" style="stroke:rgb(0,0,0);stroke-width:1" />
<line x1="276" y1="375" x2="264" y2="416" style="stroke:rgb(0,0,0);stroke-width:1" />
<line x1="263" y1="376" x2="268" y2="363" style="stroke:rgb(0,0,0);stroke-width:1" />
<line x1="268" y1="363" x2="276" y2="375" style="stroke:rgb(0,0,0);stroke-width:1" />
<line x1="276" y1="375" x2="263" y2="376" style="stroke:rgb(0,0,0);stroke-width:1" />
<line x1="268" y1="363" x2="263" y2="376" style="stroke:rgb(0,0,0);stroke-width:1" />
<line x1="263" y1="376" x2="268" y2="363" style="stroke:rgb(0,0,0);stroke-width:1" />
<line x1="268" y1="363" x2="268" y2="363" style="stroke:rgb(0,0,0);stroke-width:1" />
<line x1="263" y1="376" x2="263" y2="363" style="stroke:rgb(0,0,0);stroke-width:1" />
<line x1="263" y1="363" x2="268" y2="363" style="stroke:rgb(0,0,0);stroke-width:1" />
<line x1="268" y1="363" x2="263" y2="376" style="stroke:rgb(0,0,0);stroke-width:1" />
<line x1="268" y1="363" x2="263" y2="329" style="stroke:rgb(0,0,0);stroke-width:1" />
<line x1="263" y1="329" x2="281" y2="333" style="stroke:rgb(0,0,0);stroke-width:1" />
<line x1="281" y1="333" x2="268" y2="363" style="stroke:rgb(0,0,0);stroke-width:1" />
<line x1="263" y1="363" x2="263" y2="329" style="stroke:rgb(0,0,0);stroke-width:1" />
<line x1="263" y1="329" x2="268" y2="363" style="stroke:rgb(0,0,0);stroke-width:1" />
<line x1="268" y1="363" x2="263" y2="363" style="stroke:rgb(0,0,0);stroke-width:1" />
<line x1="263" y1="329" x2="274" y2="322" style="stroke:rgb(0,0,0);stroke-width:1" />
<line x1="274" y1="322" x2="281" y2="333" style="stroke:rgb(0,0,0);stroke-width:1" />
<line x1="281" y1="333" x2="263" y2="329" style="stroke:rgb(0,0,0);stroke-width:1" />
<line x1="263" y1="329" x2="263" y2="318" style="stroke:rgb(0,0,0);stroke-width:1" />
<line x1="263" y1="318" x2="274" y2="322" style="stroke:rgb(0,0,0);stroke-width:1" />
<line x1="274" y1="322" x2="263" y2="329" style="stroke:rgb(0,0,0);stroke-width:1" />
<line x1="274" y1="322" x2="262" y2="288" style="stroke:rgb(0,0,0);stroke-width:1" />
<line x1="262" y1="288" x2="285" y2="299" style="stroke:rgb(0,0,0);stroke-width:1" />
<line x1="285" y1="299" x2="274" y2="322" style="stroke:rgb(0,0,0);stroke-width:1" />
<line x1="263" y1="318" x2="262" y2="288" style="stroke:rgb(0,0,0);stroke-width:1" />
<line x1="262" y1="288" x2="274" y2="322" style="stroke:rgb(0,0,0);stroke-width:1" />
<line x1="274" y1="322" x2="263" y2="318" style="stroke:rgb(0,0,0);stroke-width:1" />
<line x1="262" y1="288" x2="279" y2="288" style="stroke:rgb(0,0,0);stroke-width:1" />
<line x1="279" y1="288" x2="285" y2="299" style="stroke:rgb(0,0,0);stroke-width:1" />
<line x1="285" y1="299" x2="262" y2="288" style="stroke:rgb(0,0,0);stroke-width:1" />
<line x1="262" y1="288" x2="262" y2="278" style="stroke:rgb(0,0,0);stroke-width:1" />
<line x1="262" y1="278" x2="279" y2="288" style="stroke:rgb(0,0,0);stroke-width:1" />
<line x1="279" y1="288" x2="262" y2="288" style="stroke:rgb(0,0,0);stroke-width:1" />
<line x1="279" y1="288" x2="262" y2="251" style="stroke:rgb(0,0,0);stroke-width:1" />
<line x1="262" y1="251" x2="288" y2="272" style="stroke:rgb(0,0,0);stroke-width:1" />
<line x1="288" y1="272" x2="279" y2="288" style="stroke:rgb(0,0,0);stroke-width:1" />
<line x1="262" y1="278" x2="262" y2="251" style="stroke:rgb(0,0,0);stroke-width:1" />
<line x1="262" y1="251" x2="279" y2="288" style="stroke:rgb(0,0,0);stroke-width:1" />
<line x1="279" y1="288" x2="262" y2="278" style="stroke:rgb(0,0,0);stroke-width:1" />
<line x1="262" y1="251" x2="284" y2="261" style="stroke:rgb(0,0,0);stroke-width:1" />
<line x1="284" y1="261" x2="288" y2="272" style="stroke:rgb(0,0,0);stroke-width:1" />
<line x1="288" y1="272" x2="262" y2="251" style="stroke:rgb(0,0,0);stroke-width:1" />
<line x1="262" y1="251" x2="262" y2="242" style="stroke:rgb(0,0,0);stroke-width:1" />
<line x1="262" y1="242" x2="284" y2="261" style="stroke:rgb(0,0,0);stroke-width:1" />
<line x1="284" y1="261" x2="262" y2="251" style="stroke:rgb(0,0,0);stroke-width:1" />
<line x1="279" y1="288" x2="262" y2="251" style="stroke:rgb(0,0,0);stroke-width:1" />
<line x1="262" y1="251" x2="288" y2="272" style="stroke:rgb(0,0,0);stroke-width:1" />
<line x1="288" y1="272" x2="279" y2="288" style="stroke:rgb(0,0,0);stroke-width:1" />
<line x1="284" y1="261" x2="261" y2="212" style="stroke:rgb(0,0,0);stroke-width:1" />
<line x1="261" y1="212" x2="293" y2="244" style="stroke:rgb(0,0,0);stroke-width:1" />
<line x1="293" y1="244" x2="284" y2="261" style="stroke:rgb(0,0,0);stroke-width:1" />
<line x1="262" y1="242" x2="261" y2="212" style="stroke:rgb(0,0,0);stroke-width:1" />
<line x1="261" y1="212" x2="284" y2="261" style="stroke:rgb(0,0,0);stroke-width:1" />
<line x1="284" y1="261" x2="262" y2="242" style="stroke:rgb(0,0,0);stroke-width:1" />
<line x1="261" y1="212" x2="289" y2="233" style="stroke:rgb(0,0,0);stroke-width:1" />
<line x1="289" y1="233" x2="293" y2="244" style="stroke:rgb(0,0,0);stroke-width:1" />
<line x1="293" y1="244" x2="261" y2="212" style="stroke:rgb(0,0,0);stroke-width:1" />
<line x1="261" y1="212" x2="261" y2="204" style="stroke:rgb(0,0,0);stroke-width:1" />
<line x1="261" y1="204" x2="289" y2="233" style="stroke:rgb(0,0,0);stroke-width:1" />
<line x1="289" y1="233" x2="261" y2="212" style="stroke:rgb(0,0,0);stroke-width:1" />
<line x1="289" y1="233" x2="261" y2="177" style="stroke:rgb(0,0,0);stroke-width:1" />
<line x1="261" y1="177" x2="297" y2="221" style="stroke:rgb(0,0,0);stroke-width:1" />
<line x1="297" y1="221" x2="289" y2="233" style="stroke:rgb(0,0,0);stroke-width:1" />
<line x1="261" y1="204" x2="261" y2="177" style="stroke:rgb(0,0,0);stroke-width:1" />
<line x1="261" y1="177" x2="289" y2="233" style="stroke:rgb(0,0,0);stroke-width:1" />
<line x1="289" y1="233" x2="261" y2="204" style="stroke:rgb(0,0,0);stroke-width:1" />
<line x1="261" y1="177" x2="293" y2="211" style="stroke:rgb(0,0,0);stroke-width:1" />
<line x1="293" y1="211" x2="297" y2="221" style="stroke:rgb(0,0,0);stroke-width:1" />
<line x1="297" y1="221" x2="261" y2="177" style="stroke:rgb(0,0,0);stroke-width:1" />
<line x1="261" y1="177" x2="261" y2="170" style="stroke:rgb(0,0,0);stroke-width:1" />
<line x1="261" y1="170" x2="293" y2="211" style="stroke:rgb(0,0,0);stroke-width:1" />
<line x1="293" y1="211" x2="261" y2="177" style="stroke:rgb(0,0,0);stroke-width:1" />
<line x1="261" y1="170" x2="300" y2="203" style="stroke:rgb(0,0,0);stroke-width:1" />
<line x1="300" y1="203" x2="293" y2="211" style="stroke:rgb(0,0,0);stroke-width:1" />
<line x1="293" y1="211" x2="261" y2="170" style="stroke:rgb(0,0,0);stroke-width:1" />
<line x1="261" y1="170" x2="267" y2="167" style="stroke:rgb(0,0,0);stroke-width:1" />
<line x1="267" y1="167" x2="300" y2="203" style="stroke:rgb(0,0,0);stroke-width:1" />
<line x1="300" y1="203" x2="261" y2="170" style="stroke:rgb(0,0,0);stroke-width:1" />
<line x1="261" y1="170" x2="261" y2="157" style="stroke:rgb(0,0,0);stroke-width:1" />
<line x1="261" y1="157" x2="267" y2="167" style="stroke:rgb(0,0,0);stroke-width:1" />
<line x1="267" y1="167" x2="261" y2="170" style="stroke:rgb(0,0,0);stroke-width:1" />
<line x1="261" y1="157" x2="272" y2="157" style="stroke:rgb(0,0,0);stroke-width:1" />
<line x1="272" y1="157" x2="267" y2="167" style="stroke:rgb(0,0,0);stroke-width:1" />
<line x1="267" y1="167" x2="261" y2="157" style="stroke:rgb(0,0,0);stroke-width:1" />
<line x1="261" y1="157" x2="261" y2="140" style="stroke:rgb(0,0,0);stroke-width:1" />
<line x1="261" y1="140" x2="272" y2="157" style="stroke:rgb(0,0,0);stroke-width:1" />
<line x1="272" y1="157" x2="261" y2="157" style="stroke:rgb(0,0,0);stroke-width:1" />
<line x1="264" y1="416" x2="248" y2="377" style="stroke:rgb(0,0,0);stroke-width:1" />
<line x1="248" y1="377" x2="263" y2="376" style="stroke:rgb(0,0,0);stroke-width:1" />
<line x1="263" y1="376" x2="264" y2="416" style="stroke:rgb(0,0,0);stroke-width:1" />
<line x1="263" y1="376" x2="248" y2="377" style="stroke:rgb(0,0,0);stroke-width:1" />
<line x1="248" y1="377" x2="257" y2="363" style="stroke:rgb(0,0,0);stroke-width:1" />
<line x1="257" y1="363" x2="263" y2="376" style="stroke:rgb(0,0,0);stroke-width:1" />
<line x1="257" y1="363" x2="263" y2="363" style="stroke:rgb(0,0,0);stroke-width:1" />
<line x1="263" y1="363" x2="257" y2="363" style="stroke:rgb(0,0,0);stroke-width:1" />
<line x1="257" y1="363" x2="257" y2="363" style="stroke:rgb(0,0,0);stroke-width:1" />
<line x1="263" y1="376" x2="257" y2="363" style="stroke:rgb(0,0,0);stroke-width:1" />
<line x1="257" y1="363" x2="263" y2="363" style="stroke:rgb(0,0,0);stroke-width:1" />
<line x1="263" y1="363" x2="263" y2="376" style="stroke:rgb(0,0,0);stroke-width:1" />
<line x1="257" y1="363" x2="238" y2="323" style="stroke:rgb(0,0,0);stroke-width:1" />
<line x1="238" y1="323" x2="263" y2="329" style="stroke:rgb(0,0,0);stroke-width:1" />
<line x1="263" y1="329" x2="257" y2="363" style="stroke:rgb(0,0,0);stroke-width:1" />
<line x1="263" y1="363" x2="257" y2="363" style="stroke:rgb(0,0,0);stroke-width:1" />
<line x1="257" y1="363" x2="263" y2="329" style="stroke:rgb(0,0,0);stroke-width:1" />
<line x1="263" y1="329" x2="263" y2="363" style="stroke:rgb(0,0,0);stroke-width:1" />
<line x1="263" y1="329" x2="238" y2="323" style="stroke:rgb(0,0,0);stroke-width:1" />
<line x1="238" y1="323" x2="248" y2="313" style="stroke:rgb(0,0,0);stroke-width:1" />
<line x1="248" y1="313" x2="263" y2="329" style="stroke:rgb(0,0,0);stroke-width:1" />
<line x1="263" y1="329" x2="248" y2="313" style="stroke:rgb(0,0,0);stroke-width:1" />
<line x1="248" y1="313" x2="263" y2="318" style="stroke:rgb(0,0,0);stroke-width:1" />
<line x1="263" y1="318" x2="263" y2="329" style="stroke:rgb(0,0,0);stroke-width:1" />
<line x1="248" y1="313" x2="230" y2="271" style="stroke:rgb(0,0,0);stroke-width:1" />
<line x1="230" y1="271" x2="262" y2="288" style="stroke:rgb(0,0,0);stroke-width:1" />
<line x1="262" y1="288" x2="248" y2="313" style="stroke:rgb(0,0,0);stroke-width:1" />
<line x1="263" y1="318" x2="248" y2="313" style="stroke:rgb(0,0,0);stroke-width:1" />
<line x1="248" y1="313" x2="262" y2="288" style="stroke:rgb(0,0,0);stroke-width:1" />
<line x1="262" y1="288" x2="263" y2="318" style="stroke:rgb(0,0,0);stroke-width:1" />
<line x1="262" y1="288" x2="230" y2="271" style="stroke:rgb(0,0,0);stroke-width:1" />
<line x1="230" y1="271" x2="240" y2="266" style="stroke:rgb(0,0,0);stroke-width:1" />
<line x1="240" y1="266" x2="262" y2="288" style="stroke:rgb(0,0,0);stroke-width:1" />
<line x1="262" y1="288" x2="240" y2="266" style="stroke:rgb(0,0,0);stroke-width:1" />
<line x1="240" y1="266" x2="262" y2="278" style="stroke:rgb(0,0,0);stroke-width:1" />
<line x1="262" y1="278" x2="262" y2="288" style="stroke:rgb(0,0,0);stroke-width:1" />
<line x1="240" y1="266" x2="220" y2="220" style="stroke:rgb(0,0,0);stroke-width:1" />
<line x1="220" y1="220" x2="262" y2="251" style="stroke:rgb(0,0,0);stroke-width:1" />
<line x1="262" y1="251" x2="240" y2="266" style="stroke:rgb(0,0,0);stroke-width:1" />
<line x1="262" y1="278" x2="240" y2="266" style="stroke:rgb(0,0,0);stroke-width:1" />
<line x1="240" y1="266" x2="262" y2="251" style="stroke:rgb(0,0,0);stroke-width:1" />
<line x1="262" y1="251" x2="262" y2="278" style="stroke:rgb(0,0,0);stroke-width:1" />
<line x1="262" y1="251" x2="220" y2="220" style="stroke:rgb(0,0,0);stroke-width:1" />
<line x1="220" y1="220" x2="231" y2="218" style="stroke:rgb(0,0,0);stroke-width:1" />
<line x1="231" y1="218" x2="262" y2="251" style="stroke:rgb(0,0,0);stroke-width:1" />
<line x1="262" y1="251" x2="231" y2="218" style="stroke:rgb(0,0,0);stroke-width:1" />
<line x1="231" y1="218" x2="262" y2="242" style="stroke:rgb(0,0,0);stroke-width:1" />
<line x1="262" y1="242" x2="262" y2="251" style="stroke:rgb(0,0,0);stroke-width:1" />
<line x1="240" y1="266" x2="220" y2="220" style="stroke:rgb(0,0,0);stroke-width:1" />
<line x1="220" y1="220" x2="262" y2="251" style="stroke:rgb(0,0,0);stroke-width:1" />
<line x1="262" y1="251" x2="240" y2="266" style="stroke:rgb(0,0,0);stroke-width:1" />
<line x1="231" y1="218" x2="207" y2="156" style="stroke:rgb(0,0,0);stroke-width:1" />
<line x1="207" y1="156" x2="261" y2="212" style="stroke:rgb(0,0,0);stroke-width:1" />
<line x1="261" y1="212" x2="231" y2="218" style="stroke:rgb(0,0,0);stroke-width:1" />
<line x1="262" y1="242" x2="231" y2="218" style="stroke:rgb(0,0,0);stroke-width:1" />
<line x1="231" y1="218" x2="261" y2="212" style="stroke:rgb(0,0,0);stroke-width:1" />
<line x1="261" y1="212" x2="262" y2="242" style="stroke:rgb(0,0,0);stroke-width:1" />
<line x1="261" y1="212" x2="207" y2="156" style="stroke:rgb(0,0,0);stroke-width:1" />
<line x1="207" y1="156" x2="219" y2="159" style="stroke:rgb(0,0,0);stroke-width:1" />
<line x1="219" y1="159" x2="261" y2="212" style="stroke:rgb(0,0,0);stroke-width:1" />
<line x1="261" y1="212" x2="219" y2="159" style="stroke:rgb(0,0,0);stroke-width:1" />
<line x1="219" y1="159" x2="261" y2="204" style="stroke:rgb(0,0,0);stroke-width:1" />
<line x1="261" y1="204" x2="261" y2="212" style="stroke:rgb(0,0,0);stroke-width:1" />
<line x1="219" y1="159" x2="193" y2="92" style="stroke:rgb(0,0,0);stroke-width:1" />
<line x1="193" y1="92" x2="261" y2="177" style="stroke:rgb(0,0,0);stroke-width:1" />
<line x1="261" y1="177" x2="219" y2="159" style="stroke:rgb(0,0,0);stroke-width:1" />
<line x1="261" y1="204" x2="219" y2="159" style="stroke:rgb(0,0,0);stroke-width:1" />
<line x1="219" y1="159" x2="261" y2="177" style="stroke:rgb(0,0,0);stroke-width:1" />
<line x1="261" y1="177" x2="261" y2="204" style="stroke:rgb(0,0,0);stroke-width:1" />
<line x1="261" y1="177" x2="193" y2="92" style="stroke:rgb(0,0,0);stroke-width:1" />
<line x1="193" y1="92" x2="206" y2="100" style="stroke:rgb(0,0,0);stroke-width:1" />
<line x1="206" y1="100" x2="261" y2="177" style="stroke:rgb(0,0,0);stroke-width:1" />
<line x1="261" y1="177" x2="206" y2="100" style="stroke:rgb(0,0,0);stroke-width:1" />
<line x1="206" y1="100" x2="261" y2="170" style="stroke:rgb(0,0,0);stroke-width:1" />
<line x1="261" y1="170" x2="261" y2="177" style="stroke:rgb(0,0,0);stroke-width:1" />
<line x1="261" y1="170" x2="206" y2="100" style="stroke:rgb(0,0,0);stroke-width:1" />
<line x1="206" y1="100" x2="179" y2="29" style="stroke:rgb(0,0,0);stroke-width:1" />
<line x1="179" y1="29" x2="261" y2="170" style="stroke:rgb(0,0,0);stroke-width:1" />
<line x1="261" y1="170" x2="179" y2="29" style="stroke:rgb(0,0,0);stroke-width:1" />
<line x1="179" y1="29" x2="254" y2="148" style="stroke:rgb(0,0,0);stroke-width:1" />
<line x1="254" y1="148" x2="261" y2="170" style="stroke:rgb(0,0,0);stroke-width:1" />
<line x1="261" y1="170" x2="254" y2="148" style="stroke:rgb(0,0,0);stroke-width:1" />
<line x1="254" y1="148" x2="261" y2="157" style="stroke:rgb(0,0,0);stroke-width:1" />
<line x1="261" y1="157" x2="261" y2="170" style="stroke:rgb(0,0,0);stroke-width:1" />
<line x1="261" y1="157" x2="254" y2="148" style="stroke:rgb(0,0,0);stroke-width:1" />
<line x1="254" y1="148" x2="247" y2="120" style="stroke:rgb(0,0,0);stroke-width:1" />
<line x1="247" y1="120" x2="261" y2="157" style="stroke:rgb(0,0,0);stroke-width:1" />
<line x1="261" y1="157" x2="247" y2="120" style="stroke:rgb(0,0,0);stroke-width:1" />
<line x1="247" y1="120" x2="261" y2="140" style="stroke:rgb(0,0,0);stroke-width:1" />
<line x1="261" y1="140" x2="261" y2="157" style="stroke:rgb(0,0,0);stroke-width:1" />
</svg>