<svg version="1.1" xmlns:xlink="http://www.w3.org/1999/xlink" xmlns="http://www.w3.org/2000/svg" height="512" width="512">
<line x1="276" y1="21" x2="256" y2="32" style="stroke:rgba(255,0,0,.5);stroke-width:1" />
<line x1="256" y1="32" x2="253" y2="14" style="stroke:rgba(0,255,0,.5);stroke-width:1" />
<line x1="253" y1="14" x2="276" y2="21" style="stroke:rgba(0,0,255,.5);stroke-width:1" />
<line x1="266" y1="64" x2="245" y2="46" style="stroke:rgba(255,0,0,.5);stroke-width:1" />
<line x1="245" y1="46" x2="256" y2="32" style="stroke:rgba(0,255,0,.5);stroke-width:1" />
<line x1="256" y1="32" x2="266" y2="64" style="stroke:rgba(0,0,255,.5);stroke-width:1" />
<line x1="223" y1="61" x2="234" y2="30" style="stroke:rgba(255,0,0,.5);stroke-width:1" />
<line x1="234" y1="30" x2="245" y2="46" style="stroke:rgba(0,255,0,.5);stroke-width:1" />
<line x1="245" y1="46" x2="223" y2="61" style="stroke:rgba(0,0,255,.5);stroke-width:1" />
<line x1="209" y1="11" x2="236" y2="11" style="stroke:rgba(255,0,0,.5);stroke-width:1" />
<line x1="236" y1="11" x2="234" y2="30" style="stroke:rgba(0,255,0,.5);stroke-width:1" />
<line x1="234" y1="30" x2="209" y2="11" style="stroke:rgba(0,0,255,.5);stroke-width:1" />
<line x1="244" y1="-21" x2="253" y2="14" style="stroke:rgba(255,0,0,.5);stroke-width:1" />
<line x1="253" y1="14" x2="236" y2="11" style="stroke:rgba(0,255,0,.5);stroke-width:1" />
<line x1="236" y1="11" x2="244" y2="-21" style="stroke:rgba(0,0,255,.5);stroke-width:1" />
<line x1="245" y1="46" x2="234" y2="30" style="stroke:rgba(255,0,0,.5);stroke-width:1" />
<line x1="234" y1="30" x2="256" y2="32" style="stroke:rgba(0,255,0,.5);stroke-width:1" />
<line x1="256" y1="32" x2="245" y2="46" style="stroke:rgba(0,0,255,.5);stroke-width:1" />
<line x1="256" y1="32" x2="234" y2="30" style="stroke:rgba(255,0,0,.5);stroke-width:1" />
<line x1="234" y1="30" x2="253" y2="14" style="stroke:rgba(0,255,0,.5);stroke-width:1" />
<line x1="253" y1="14" x2="256" y2="32" style="stroke:rgba(0,0,255,.5);stroke-width:1" />
<line x1="253" y1="14" x2="234" y2="30" style="stroke:rgba(255,0,0,.5);stroke-width:1" />
<line x1="234" y1="30" x2="236" y2="11" style="stroke:rgba(0,255,0,.5);stroke-width:1" />
<line x1="236" y1="11" x2="253" y2="14" style="stroke:rgba(0,0,255,.5);stroke-width:1" />
<line x1="245" y1="50" x2="246" y2="101" style="stroke:rgba(255,0,0,.5);stroke-width:1" />
<line x1="246" y1="101" x2="210" y2="100" style="stroke:rgba(0,255,0,.5);stroke-width:1" />
<line x1="210" y1="100" x2="245" y2="50" style="stroke:rgba(0,0,255,.5);stroke-width:1" />
<line x1="246" y1="101" x2="233" y2="117" style="stroke:rgba(255,0,0,.5);stroke-width:1" />
<line x1="233" y1="117" x2="210" y2="100" style="stroke:rgba(0,255,0,.5);stroke-width:1" />
<line x1="210" y1="100" x2="246" y2="101" style="stroke:rgba(0,0,255,.5);stroke-width:1" />
<line x1="233" y1="117" x2="246" y2="101" style="stroke:rgba(255,0,0,.5);stroke-width:1" />
<line x1="246" y1="101" x2="233" y2="117" style="stroke:rgba(0,255,0,.5);stroke-width:1" />
<line x1="233" y1="117" x2="233" y2="117" style="stroke:rgba(0,0,255,.5);stroke-width:1" />
<line x1="246" y1="101" x2="246" y2="117" style="stroke:rgba(255,0,0,.5);stroke-width:1" />
<line x1="246" y1="117" x2="233" y2="117" style="stroke:rgba(0,255,0,.5);stroke-width:1" />
<line x1="233" y1="117" x2="246" y2="101" style="stroke:rgba(0,0,255,.5);stroke-width:1" />
<line x1="233" y1="117" x2="246" y2="161" style="stroke:rgba(255,0,0,.5);stroke-width:1" />
<line x1="246" y1="161" x2="192" y2="165" style="stroke:rgba(0,255,0,.5);stroke-width:1" />
<line x1="192" y1="165" x2="233" y2="117" style="stroke:rgba(0,0,255,.5);stroke-width:1" />
<line x1="246" y1="117" x2="246" y2="161" style="stroke:rgba(255,0,0,.5);stroke-width:1" />
<line x1="246" y1="161" x2="233" y2="117" style="stroke:rgba(0,255,0,.5);stroke-width:1" />
<line x1="233" y1="117" x2="246" y2="117" style="stroke:rgba(0,0,255,.5);stroke-width:1" />
<line x1="246" y1="161" x2="214" y2="178" style="stroke:rgba(255,0,0,.5);stroke-width:1" />
<line x1="214" y1="178" x2="192" y2="165" style="stroke:rgba(0,255,0,.5);stroke-width:1" />
<line x1="192" y1="165" x2="246" y2="161" style="stroke:rgba(0,0,255,.5);stroke-width:1" />
<line x1="246" y1="161" x2="247" y2="175" style="stroke:rgba(255,0,0,.5);stroke-width:1" />
<line x1="247" y1="175" x2="214" y2="178" style="stroke:rgba(0,255,0,.5);stroke-width:1" />
<line x1="214" y1="178" x2="246" y2="161" style="stroke:rgba(0,0,255,.5);stroke-width:1" />
<line x1="214" y1="178" x2="247" y2="214" style="stroke:rgba(255,0,0,.5);stroke-width:1" />
<line x1="247" y1="214" x2="176" y2="225" style="stroke:rgba(0,255,0,.5);stroke-width:1" />
<line x1="176" y1="225" x2="214" y2="178" style="stroke:rgba(0,0,255,.5);stroke-width:1" />
<line x1="247" y1="175" x2="247" y2="214" style="stroke:rgba(255,0,0,.5);stroke-width:1" />
<line x1="247" y1="214" x2="214" y2="178" style="stroke:rgba(0,255,0,.5);stroke-width:1" />
<line x1="214" y1="178" x2="247" y2="175" style="stroke:rgba(0,0,255,.5);stroke-width:1" />
<line x1="247" y1="214" x2="197" y2="235" style="stroke:rgba(255,0,0,.5);stroke-width:1" />
<line x1="197" y1="235" x2="176" y2="225" style="stroke:rgba(0,255,0,.5);stroke-width:1" />
<line x1="176" y1="225" x2="247" y2="214" style="stroke:rgba(0,0,255,.5);stroke-width:1" />
<line x1="247" y1="214" x2="247" y2="227" style="stroke:rgba(255,0,0,.5);stroke-width:1" />
<line x1="247" y1="227" x2="197" y2="235" style="stroke:rgba(0,255,0,.5);stroke-width:1" />
<line x1="197" y1="235" x2="247" y2="214" style="stroke:rgba(0,0,255,.5);stroke-width:1" />
<line x1="197" y1="235" x2="248" y2="261" style="stroke:rgba(255,0,0,.5);stroke-width:1" />
<line x1="248" y1="261" x2="159" y2="281" style="stroke:rgba(0,255,0,.5);stroke-width:1" />
<line x1="159" y1="281" x2="197" y2="235" style="stroke:rgba(0,0,255,.5);stroke-width:1" />
<line x1="247" y1="227" x2="248" y2="261" style="stroke:rgba(255,0,0,.5);stroke-width:1" />
<line x1="248" y1="261" x2="197" y2="235" style="stroke:rgba(0,255,0,.5);stroke-width:1" />
<line x1="197" y1="235" x2="247" y2="227" style="stroke:rgba(0,0,255,.5);stroke-width:1" />
<line x1="248" y1="261" x2="180" y2="288" style="stroke:rgba(255,0,0,.5);stroke-width:1" />
<line x1="180" y1="288" x2="159" y2="281" style="stroke:rgba(0,255,0,.5);stroke-width:1" />
<line x1="159" y1="281" x2="248" y2="261" style="stroke:rgba(0,0,255,.5);stroke-width:1" />
<line x1="248" y1="261" x2="248" y2="272" style="stroke:rgba(255,0,0,.5);stroke-width:1" />
<line x1="248" y1="272" x2="180" y2="288" style="stroke:rgba(0,255,0,.5);stroke-width:1" />
<line x1="180" y1="288" x2="248" y2="261" style="stroke:rgba(0,0,255,.5);stroke-width:1" />
<line x1="197" y1="235" x2="248" y2="261" style="stroke:rgba(255,0,0,.5);stroke-width:1" />
<line x1="248" y1="261" x2="159" y2="281" style="stroke:rgba(0,255,0,.5);stroke-width:1" />
<line x1="159" y1="281" x2="197" y2="235" style="stroke:rgba(0,0,255,.5);stroke-width:1" />
<line x1="180" y1="288" x2="248" y2="311" style="stroke:rgba(255,0,0,.5);stroke-width:1" />
<line x1="248" y1="311" x2="135" y2="346" style="stroke:rgba(0,255,0,.5);stroke-width:1" />
<line x1="135" y1="346" x2="180" y2="288" style="stroke:rgba(0,0,255,.5);stroke-width:1" />
<line x1="248" y1="272" x2="248" y2="311" style="stroke:rgba(255,0,0,.5);stroke-width:1" />
<line x1="248" y1="311" x2="180" y2="288" style="stroke:rgba(0,255,0,.5);stroke-width:1" />
<line x1="180" y1="288" x2="248" y2="272" style="stroke:rgba(0,0,255,.5);stroke-width:1" />
<line x1="248" y1="311" x2="157" y2="350" style="stroke:rgba(255,0,0,.5);stroke-width:1" />
<line x1="157" y1="350" x2="135" y2="346" style="stroke:rgba(0,255,0,.5);stroke-width:1" />
<line x1="135" y1="346" x2="248" y2="311" style="stroke:rgba(0,0,255,.5);stroke-width:1" />
<line x1="248" y1="311" x2="248" y2="321" style="stroke:rgba(255,0,0,.5);stroke-width:1" />
<line x1="248" y1="321" x2="157" y2="350" style="stroke:rgba(0,255,0,.5);stroke-width:1" />
<line x1="157" y1="350" x2="248" y2="311" style="stroke:rgba(0,0,255,.5);stroke-width:1" />
<line x1="157" y1="350" x2="249" y2="357" style="stroke:rgba(255,0,0,.5);stroke-width:1" />
<line x1="249" y1="357" x2="113" y2="408" style="stroke:rgba(0,255,0,.5);stroke-width:1" />
<line x1="113" y1="408" x2="157" y2="350" style="stroke:rgba(0,0,255,.5);stroke-width:1" />
<line x1="248" y1="321" x2="249" y2="357" style="stroke:rgba(255,0,0,.5);stroke-width:1" />
<line x1="249" y1="357" x2="157" y2="350" style="stroke:rgba(0,255,0,.5);stroke-width:1" />
<line x1="157" y1="350" x2="248" y2="321" style="stroke:rgba(0,0,255,.5);stroke-width:1" />
<line x1="249" y1="357" x2="136" y2="409" style="stroke:rgba(255,0,0,.5);stroke-width:1" />
<line x1="136" y1="409" x2="113" y2="408" style="stroke:rgba(0,255,0,.5);stroke-width:1" />
<line x1="113" y1="408" x2="249" y2="357" style="stroke:rgba(0,0,255,.5);stroke-width:1" />
<line x1="249" y1="357" x2="249" y2="365" style="stroke:rgba(255,0,0,.5);stroke-width:1" />
<line x1="249" y1="365" x2="136" y2="409" style="stroke:rgba(0,255,0,.5);stroke-width:1" />
<line x1="136" y1="409" x2="249" y2="357" style="stroke:rgba(0,0,255,.5);stroke-width:1" />
<line x1="249" y1="365" x2="92" y2="465" style="stroke:rgba(255,0,0,.5);stroke-width:1" />
<line x1="92" y1="465" x2="136" y2="409" style="stroke:rgba(0,255,0,.5);stroke-width:1" />
<line x1="136" y1="409" x2="249" y2="365" style="stroke:rgba(0,0,255,.5);stroke-width:1" />
<line x1="249" y1="365" x2="232" y2="388" style="stroke:rgba(255,0,0,.5);stroke-width:1" />
<line x1="232" y1="388" x2="92" y2="465" style="stroke:rgba(0,255,0,.5);stroke-width:1" />
<line x1="92" y1="465" x2="249" y2="365" style="stroke:rgba(0,0,255,.5);stroke-width:1" />
<line x1="249" y1="365" x2="249" y2="382" style="stroke:rgba(255,0,0,.5);stroke-width:1" />
<line x1="249" y1="382" x2="232" y2="388" style="stroke:rgba(0,255,0,.5);stroke-width:1" />
<line x1="232" y1="388" x2="249" y2="365" style="stroke:rgba(0,0,255,.5);stroke-width:1" />
<line x1="249" y1="382" x2="218" y2="417" style="stroke:rgba(255,0,0,.5);stroke-width:1" />
<line x1="218" y1="417" x2="232" y2="388" style="stroke:rgba(0,255,0,.5);stroke-width:1" />
<line x1="232" y1="388" x2="249" y2="382" style="stroke:rgba(0,0,255,.5);stroke-width:1" />
<line x1="249" y1="382" x2="249" y2="403" style="stroke:rgba(255,0,0,.5);stroke-width:1" />
<line x1="249" y1="403" x2="218" y2="417" style="stroke:rgba(0,255,0,.5);stroke-width:1" />
<line x1="218" y1="417" x2="249" y2="382" style="stroke:rgba(0,0,255,.5);stroke-width:1" />
<line x1="245" y1="50" x2="278" y2="102" style="stroke:rgba(255,0,0,.5);stroke-width:1" />
<line x1="278" y1="102" x2="246" y2="101" style="stroke:rgba(0,255,0,.5);stroke-width:1" />
<line x1="246" y1="101" x2="245" y2="50" style="stroke:rgba(0,0,255,.5);stroke-width:1" />
<line x1="246" y1="101" x2="278" y2="102" style="stroke:rgba(255,0,0,.5);stroke-width:1" />
<line x1="278" y1="102" x2="259" y2="117" style="stroke:rgba(0,255,0,.5);stroke-width:1" />
<line x1="259" y1="117" x2="246" y2="101" style="stroke:rgba(0,0,255,.5);stroke-width:1" />
<line x1="259" y1="117" x2="246" y2="117" style="stroke:rgba(255,0,0,.5);stroke-width:1" />
<line x1="246" y1="117" x2="259" y2="117" style="stroke:rgba(0,255,0,.5);stroke-width:1" />
<line x1="259" y1="117" x2="259" y2="117" style="stroke:rgba(0,0,255,.5);stroke-width:1" />
<line x1="246" y1="101" x2="259" y2="117" style="stroke:rgba(255,0,0,.5);stroke-width:1" />
<line x1="259" y1="117" x2="246" y2="117" style="stroke:rgba(0,255,0,.5);stroke-width:1" />
<line x1="246" y1="117" x2="246" y2="101" style="stroke:rgba(0,0,255,.5);stroke-width:1" />
<line x1="259" y1="117" x2="293" y2="158" style="stroke:rgba(255,0,0,.5);stroke-width:1" />
<line x1="293" y1="158" x2="246" y2="161" style="stroke:rgba(0,255,0,.5);stroke-width:1" />
<line x1="246" y1="161" x2="259" y2="117" style="stroke:rgba(0,0,255,.5);stroke-width:1" />
<line x1="246" y1="117" x2="259" y2="117" style="stroke:rgba(255,0,0,.5);stroke-width:1" />
<line x1="259" y1="117" x2="246" y2="161" style="stroke:rgba(0,255,0,.5);stroke-width:1" />
<line x1="246" y1="161" x2="246" y2="117" style="stroke:rgba(0,0,255,.5);stroke-width:1" />
<line x1="246" y1="161" x2="293" y2="158" style="stroke:rgba(255,0,0,.5);stroke-width:1" />
<line x1="293" y1="158" x2="277" y2="172" style="stroke:rgba(0,255,0,.5);stroke-width:1" />
<line x1="277" y1="172" x2="246" y2="161" style="stroke:rgba(0,0,255,.5);stroke-width:1" />
<line x1="246" y1="161" x2="277" y2="172" style="stroke:rgba(255,0,0,.5);stroke-width:1" />
<line x1="277" y1="172" x2="247" y2="175" style="stroke:rgba(0,255,0,.5);stroke-width:1" />
<line x1="247" y1="175" x2="246" y2="161" style="stroke:rgba(0,0,255,.5);stroke-width:1" />
<line x1="277" y1="172" x2="306" y2="205" style="stroke:rgba(255,0,0,.5);stroke-width:1" />
<line x1="306" y1="205" x2="247" y2="214" style="stroke:rgba(0,255,0,.5);stroke-width:1" />
<line x1="247" y1="214" x2="277" y2="172" style="stroke:rgba(0,0,255,.5);stroke-width:1" />
<line x1="247" y1="175" x2="277" y2="172" style="stroke:rgba(255,0,0,.5);stroke-width:1" />
<line x1="277" y1="172" x2="247" y2="214" style="stroke:rgba(0,255,0,.5);stroke-width:1" />
<line x1="247" y1="214" x2="247" y2="175" style="stroke:rgba(0,0,255,.5);stroke-width:1" />
<line x1="247" y1="214" x2="306" y2="205" style="stroke:rgba(255,0,0,.5);stroke-width:1" />
<line x1="306" y1="205" x2="291" y2="218" style="stroke:rgba(0,255,0,.5);stroke-width:1" />
<line x1="291" y1="218" x2="247" y2="214" style="stroke:rgba(0,0,255,.5);stroke-width:1" />
<line x1="247" y1="214" x2="291" y2="218" style="stroke:rgba(255,0,0,.5);stroke-width:1" />
<line x1="291" y1="218" x2="247" y2="227" style="stroke:rgba(0,255,0,.5);stroke-width:1" />
<line x1="247" y1="227" x2="247" y2="214" style="stroke:rgba(0,0,255,.5);stroke-width:1" />
<line x1="291" y1="218" x2="317" y2="245" style="stroke:rgba(255,0,0,.5);stroke-width:1" />
<line x1="317" y1="245" x2="248" y2="261" style="stroke:rgba(0,255,0,.5);stroke-width:1" />
<line x1="248" y1="261" x2="291" y2="218" style="stroke:rgba(0,0,255,.5);stroke-width:1" />
<line x1="247" y1="227" x2="291" y2="218" style="stroke:rgba(255,0,0,.5);stroke-width:1" />
<line x1="291" y1="218" x2="248" y2="261" style="stroke:rgba(0,255,0,.5);stroke-width:1" />
<line x1="248" y1="261" x2="247" y2="227" style="stroke:rgba(0,0,255,.5);stroke-width:1" />
<line x1="248" y1="261" x2="317" y2="245" style="stroke:rgba(255,0,0,.5);stroke-width:1" />
<line x1="317" y1="245" x2="304" y2="258" style="stroke:rgba(0,255,0,.5);stroke-width:1" />
<line x1="304" y1="258" x2="248" y2="261" style="stroke:rgba(0,0,255,.5);stroke-width:1" />
<line x1="248" y1="261" x2="304" y2="258" style="stroke:rgba(255,0,0,.5);stroke-width:1" />
<line x1="304" y1="258" x2="248" y2="272" style="stroke:rgba(0,255,0,.5);stroke-width:1" />
<line x1="248" y1="272" x2="248" y2="261" style="stroke:rgba(0,0,255,.5);stroke-width:1" />
<line x1="291" y1="218" x2="317" y2="245" style="stroke:rgba(255,0,0,.5);stroke-width:1" />
<line x1="317" y1="245" x2="248" y2="261" style="stroke:rgba(0,255,0,.5);stroke-width:1" />
<line x1="248" y1="261" x2="291" y2="218" style="stroke:rgba(0,0,255,.5);stroke-width:1" />
<line x1="304" y1="258" x2="332" y2="286" style="stroke:rgba(255,0,0,.5);stroke-width:1" />
<line x1="332" y1="286" x2="248" y2="311" style="stroke:rgba(0,255,0,.5);stroke-width:1" />
<line x1="248" y1="311" x2="304" y2="258" style="stroke:rgba(0,0,255,.5);stroke-width:1" />
<line x1="248" y1="272" x2="304" y2="258" style="stroke:rgba(255,0,0,.5);stroke-width:1" />
<line x1="304" y1="258" x2="248" y2="311" style="stroke:rgba(0,255,0,.5);stroke-width:1" />
<line x1="248" y1="311" x2="248" y2="272" style="stroke:rgba(0,0,255,.5);stroke-width:1" />
<line x1="248" y1="311" x2="332" y2="286" style="stroke:rgba(255,0,0,.5);stroke-width:1" />
<line x1="332" y1="286" x2="319" y2="298" style="stroke:rgba(0,255,0,.5);stroke-width:1" />
<line x1="319" y1="298" x2="248" y2="311" style="stroke:rgba(0,0,255,.5);stroke-width:1" />
<line x1="248" y1="311" x2="319" y2="298" style="stroke:rgba(255,0,0,.5);stroke-width:1" />
<line x1="319" y1="298" x2="248" y2="321" style="stroke:rgba(0,255,0,.5);stroke-width:1" />
<line x1="248" y1="321" x2="248" y2="311" style="stroke:rgba(0,0,255,.5);stroke-width:1" />
<line x1="319" y1="298" x2="344" y2="321" style="stroke:rgba(255,0,0,.5);stroke-width:1" />
<line x1="344" y1="321" x2="249" y2="357" style="stroke:rgba(0,255,0,.5);stroke-width:1" />
<line x1="249" y1="357" x2="319" y2="298" style="stroke:rgba(0,0,255,.5);stroke-width:1" />
<line x1="248" y1="321" x2="319" y2="298" style="stroke:rgba(255,0,0,.5);stroke-width:1" />
<line x1="319" y1="298" x2="249" y2="357" style="stroke:rgba(0,255,0,.5);stroke-width:1" />
<line x1="249" y1="357" x2="248" y2="321" style="stroke:rgba(0,0,255,.5);stroke-width:1" />
<line x1="249" y1="357" x2="344" y2="321" style="stroke:rgba(255,0,0,.5);stroke-width:1" />
<line x1="344" y1="321" x2="332" y2="332" style="stroke:rgba(0,255,0,.5);stroke-width:1" />
<line x1="332" y1="332" x2="249" y2="357" style="stroke:rgba(0,0,255,.5);stroke-width:1" />
<line x1="249" y1="357" x2="332" y2="332" style="stroke:rgba(255,0,0,.5);stroke-width:1" />
<line x1="332" y1="332" x2="249" y2="365" style="stroke:rgba(0,255,0,.5);stroke-width:1" />
<line x1="249" y1="365" x2="249" y2="357" style="stroke:rgba(0,0,255,.5);stroke-width:1" />
<line x1="249" y1="365" x2="332" y2="332" style="stroke:rgba(255,0,0,.5);stroke-width:1" />
<line x1="332" y1="332" x2="354" y2="350" style="stroke:rgba(0,255,0,.5);stroke-width:1" />
<line x1="354" y1="350" x2="249" y2="365" style="stroke:rgba(0,0,255,.5);stroke-width:1" />
<line x1="249" y1="365" x2="354" y2="350" style="stroke:rgba(255,0,0,.5);stroke-width:1" />
<line x1="354" y1="350" x2="265" y2="374" style="stroke:rgba(0,255,0,.5);stroke-width:1" />
<line x1="265" y1="374" x2="249" y2="365" style="stroke:rgba(0,0,255,.5);stroke-width:1" />
<line x1="249" y1="365" x2="265" y2="374" style="stroke:rgba(255,0,0,.5);stroke-width:1" />
<line x1="265" y1="374" x2="249" y2="382" style="stroke:rgba(0,255,0,.5);stroke-width:1" />
<line x1="249" y1="382" x2="249" y2="365" style="stroke:rgba(0,0,255,.5);stroke-width:1" />
<line x1="249" y1="382" x2="265" y2="374" style="stroke:rgba(255,0,0,.5);stroke-width:1" />
<line x1="265" y1="374" x2="277" y2="391" style="stroke:rgba(0,255,0,.5);stroke-width:1" />
<line x1="277" y1="391" x2="249" y2="382" style="stroke:rgba(0,0,255,.5);stroke-width:1" />
<line x1="249" y1="382" x2="277" y2="391" style="stroke:rgba(255,0,0,.5);stroke-width:1" />
<line x1="277" y1="391" x2="249" y2="403" style="stroke:rgba(0,255,0,.5);stroke-width:1" />
<line x1="249" y1="403" x2="249" y2="382" style="stroke:rgba(0,0,255,.5);stroke-width:1" />
<line x1="245" y1="50" x2="246" y2="101" style="stroke:rgba(255,0,0,.5);stroke-width:1" />
<line x1="246" y1="101" x2="229" y2="102" style="stroke:rgba(0,255,0,.5);stroke-width:1" />
<line x1="229" y1="102" x2="245" y2="50" style="stroke:rgba(0,0,255,.5);stroke-width:1" />
<line x1="246" y1="101" x2="239" y2="117" style="stroke:rgba(255,0,0,.5);stroke-width:1" />
<line x1="239" y1="117" x2="229" y2="102" style="stroke:rgba(0,255,0,.5);stroke-width:1" />
<line x1="229" y1="102" x2="246" y2="101" style="stroke:rgba(0,0,255,.5);stroke-width:1" />
<line x1="239" y1="117" x2="246" y2="101" style="stroke:rgba(255,0,0,.5);stroke-width:1" />
<line x1="246" y1="101" x2="239" y2="117" style="stroke:rgba(0,255,0,.5);stroke-width:1" />
<line x1="239" y1="117" x2="239" y2="117" style="stroke:rgba(0,0,255,.5);stroke-width:1" />
<line x1="246" y1="101" x2="246" y2="117" style="stroke:rgba(255,0,0,.5);stroke-width:1" />
<line x1="246" y1="117" x2="239" y2="117" style="stroke:rgba(0,255,0,.5);stroke-width:1" />
<line x1="239" y1="117" x2="246" y2="101" style="stroke:rgba(0,0,255,.5);stroke-width:1" />
<line x1="239" y1="117" x2="246" y2="161" style="stroke:rgba(255,0,0,.5);stroke-width:1" />
<line x1="246" y1="161" x2="223" y2="156" style="stroke:rgba(0,255,0,.5);stroke-width:1" />
<line x1="223" y1="156" x2="239" y2="117" style="stroke:rgba(0,0,255,.5);stroke-width:1" />
<line x1="246" y1="117" x2="246" y2="161" style="stroke:rgba(255,0,0,.5);stroke-width:1" />
<line x1="246" y1="161" x2="239" y2="117" style="stroke:rgba(0,255,0,.5);stroke-width:1" />
<line x1="239" y1="117" x2="246" y2="117" style="stroke:rgba(0,0,255,.5);stroke-width:1" />
<line x1="246" y1="161" x2="231" y2="171" style="stroke:rgba(255,0,0,.5);stroke-width:1" />
<line x1="231" y1="171" x2="223" y2="156" style="stroke:rgba(0,255,0,.5);stroke-width:1" />
<line x1="223" y1="156" x2="246" y2="161" style="stroke:rgba(0,0,255,.5);stroke-width:1" />
<line x1="246" y1="161" x2="246" y2="175" style="stroke:rgba(255,0,0,.5);stroke-width:1" />
<line x1="246" y1="175" x2="231" y2="171" style="stroke:rgba(0,255,0,.5);stroke-width:1" />
<line x1="231" y1="171" x2="246" y2="161" style="stroke:rgba(0,0,255,.5);stroke-width:1" />
<line x1="231" y1="171" x2="247" y2="214" style="stroke:rgba(255,0,0,.5);stroke-width:1" />
<line x1="247" y1="214" x2="218" y2="199" style="stroke:rgba(0,255,0,.5);stroke-width:1" />
<line x1="218" y1="199" x2="231" y2="171" style="stroke:rgba(0,0,255,.5);stroke-width:1" />
<line x1="246" y1="175" x2="247" y2="214" style="stroke:rgba(255,0,0,.5);stroke-width:1" />
<line x1="247" y1="214" x2="231" y2="171" style="stroke:rgba(0,255,0,.5);stroke-width:1" />
<line x1="231" y1="171" x2="246" y2="175" style="stroke:rgba(0,0,255,.5);stroke-width:1" />
<line x1="247" y1="214" x2="225" y2="213" style="stroke:rgba(255,0,0,.5);stroke-width:1" />
<line x1="225" y1="213" x2="218" y2="199" style="stroke:rgba(0,255,0,.5);stroke-width:1" />
<line x1="218" y1="199" x2="247" y2="214" style="stroke:rgba(0,0,255,.5);stroke-width:1" />
<line x1="247" y1="214" x2="247" y2="227" style="stroke:rgba(255,0,0,.5);stroke-width:1" />
<line x1="247" y1="227" x2="225" y2="213" style="stroke:rgba(0,255,0,.5);stroke-width:1" />
<line x1="225" y1="213" x2="247" y2="214" style="stroke:rgba(0,0,255,.5);stroke-width:1" />
<line x1="225" y1="213" x2="247" y2="261" style="stroke:rgba(255,0,0,.5);stroke-width:1" />
<line x1="247" y1="261" x2="213" y2="235" style="stroke:rgba(0,255,0,.5);stroke-width:1" />
<line x1="213" y1="235" x2="225" y2="213" style="stroke:rgba(0,0,255,.5);stroke-width:1" />
<line x1="247" y1="227" x2="247" y2="261" style="stroke:rgba(255,0,0,.5);stroke-width:1" />
<line x1="247" y1="261" x2="225" y2="213" style="stroke:rgba(0,255,0,.5);stroke-width:1" />
<line x1="225" y1="213" x2="247" y2="227" style="stroke:rgba(0,0,255,.5);stroke-width:1" />
<line x1="247" y1="261" x2="220" y2="249" style="stroke:rgba(255,0,0,.5);stroke-width:1" />
<line x1="220" y1="249" x2="213" y2="235" style="stroke:rgba(0,255,0,.5);stroke-width:1" />
<line x1="213" y1="235" x2="247" y2="261" style="stroke:rgba(0,0,255,.5);stroke-width:1" />
<line x1="247" y1="261" x2="248" y2="272" style="stroke:rgba(255,0,0,.5);stroke-width:1" />
<line x1="248" y1="272" x2="220" y2="249" style="stroke:rgba(0,255,0,.5);stroke-width:1" />
<line x1="220" y1="249" x2="247" y2="261" style="stroke:rgba(0,0,255,.5);stroke-width:1" />
<line x1="225" y1="213" x2="247" y2="261" style="stroke:rgba(255,0,0,.5);stroke-width:1" />
<line x1="247" y1="261" x2="213" y2="235" style="stroke:rgba(0,255,0,.5);stroke-width:1" />
<line x1="213" y1="235" x2="225" y2="213" style="stroke:rgba(0,0,255,.5);stroke-width:1" />
<line x1="220" y1="249" x2="248" y2="312" style="stroke:rgba(255,0,0,.5);stroke-width:1" />
<line x1="248" y1="312" x2="207" y2="271" style="stroke:rgba(0,255,0,.5);stroke-width:1" />
<line x1="207" y1="271" x2="220" y2="249" style="stroke:rgba(0,0,255,.5);stroke-width:1" />
<line x1="248" y1="272" x2="248" y2="312" style="stroke:rgba(255,0,0,.5);stroke-width:1" />
<line x1="248" y1="312" x2="220" y2="249" style="stroke:rgba(0,255,0,.5);stroke-width:1" />
<line x1="220" y1="249" x2="248" y2="272" style="stroke:rgba(0,0,255,.5);stroke-width:1" />
<line x1="248" y1="312" x2="213" y2="284" style="stroke:rgba(255,0,0,.5);stroke-width:1" />
<line x1="213" y1="284" x2="207" y2="271" style="stroke:rgba(0,255,0,.5);stroke-width:1" />
<line x1="207" y1="271" x2="248" y2="312" style="stroke:rgba(0,0,255,.5);stroke-width:1" />
<line x1="248" y1="312" x2="248" y2="321" style="stroke:rgba(255,0,0,.5);stroke-width:1" />
<line x1="248" y1="321" x2="213" y2="284" style="stroke:rgba(0,255,0,.5);stroke-width:1" />
<line x1="213" y1="284" x2="248" y2="312" style="stroke:rgba(0,0,255,.5);stroke-width:1" />
<line x1="213" y1="284" x2="248" y2="357" style="stroke:rgba(255,0,0,.5);stroke-width:1" />
<line x1="248" y1="357" x2="202" y2="300" style="stroke:rgba(0,255,0,.5);stroke-width:1" />
<line x1="202" y1="300" x2="213" y2="284" style="stroke:rgba(0,0,255,.5);stroke-width:1" />
<line x1="248" y1="321" x2="248" y2="357" style="stroke:rgba(255,0,0,.5);stroke-width:1" />
<line x1="248" y1="357" x2="213" y2="284" style="stroke:rgba(0,255,0,.5);stroke-width:1" />
<line x1="213" y1="284" x2="248" y2="321" style="stroke:rgba(0,0,255,.5);stroke-width:1" />
<line x1="248" y1="357" x2="208" y2="313" style="stroke:rgba(255,0,0,.5);stroke-width:1" />
<line x1="208" y1="313" x2="202" y2="300" style="stroke:rgba(0,255,0,.5);stroke-width:1" />
<line x1="202" y1="300" x2="248" y2="357" style="stroke:rgba(0,0,255,.5);stroke-width:1" />
<line x1="248" y1="357" x2="248" y2="366" style="stroke:rgba(255,0,0,.5);stroke-width:1" />
<line x1="248" y1="366" x2="208" y2="313" style="stroke:rgba(0,255,0,.5);stroke-width:1" />
<line x1="208" y1="313" x2="248" y2="357" style="stroke:rgba(0,0,255,.5);stroke-width:1" />
<line x1="248" y1="366" x2="198" y2="324" style="stroke:rgba(255,0,0,.5);stroke-width:1" />
<line x1="198" y1="324" x2="208" y2="313" style="stroke:rgba(0,255,0,.5);stroke-width:1" />
<line x1="208" y1="313" x2="248" y2="366" style="stroke:rgba(0,0,255,.5);stroke-width:1" />
<line x1="248" y1="366" x2="240" y2="370" style="stroke:rgba(255,0,0,.5);stroke-width:1" />
<line x1="240" y1="370" x2="198" y2="324" style="stroke:rgba(0,255,0,.5);stroke-width:1" />
<line x1="198" y1="324" x2="248" y2="366" style="stroke:rgba(0,0,255,.5);stroke-width:1" />
<line x1="248" y1="366" x2="249" y2="382" style="stroke:rgba(255,0,0,.5);stroke-width:1" />
<line x1="249" y1="382" x2="240" y2="370" style="stroke:rgba(0,255,0,.5);stroke-width:1" />
<line x1="240" y1="370" x2="248" y2="366" style="stroke:rgba(0,0,255,.5);stroke-width:1" />
<line x1="249" y1="382" x2="234" y2="382" style="stroke:rgba(255,0,0,.5);stroke-width:1" />
<line x1="234" y1="382" x2="240" y2="370" style="stroke:rgba(0,255,0,.5);stroke-width:1" />
<line x1="240" y1="370" x2="249" y2="382" style="stroke:rgba(0,0,255,.5);stroke-width:1" />
<line x1="249" y1="382" x2="249" y2="404" style="stroke:rgba(255,0,0,.5);stroke-width:1" />
<line x1="249" y1="404" x2="234" y2="382" style="stroke:rgba(0,255,0,.5);stroke-width:1" />
<line x1="234" y1="382" x2="249" y2="382" style="stroke:rgba(0,0,255,.5);stroke-width:1" />
<line x1="245" y1="50" x2="265" y2="100" style="stroke:rgba(255,0,0,.5);stroke-width:1" />
<line x1="265" y1="100" x2="246" y2="101" style="stroke:rgba(0,255,0,.5);stroke-width:1" />
<line x1="246" y1="101" x2="245" y2="50" style="stroke:rgba(0,0,255,.5);stroke-width:1" />
<line x1="246" y1="101" x2="265" y2="100" style="stroke:rgba(255,0,0,.5);stroke-width:1" />
<line x1="265" y1="100" x2="253" y2="117" style="stroke:rgba(0,255,0,.5);stroke-width:1" />
<line x1="253" y1="117" x2="246" y2="101" style="stroke:rgba(0,0,255,.5);stroke-width:1" />
<line x1="253" y1="117" x2="246" y2="117" style="stroke:rgba(255,0,0,.5);stroke-width:1" />
<line x1="246" y1="117" x2="253" y2="117" style="stroke:rgba(0,255,0,.5);stroke-width:1" />
<line x1="253" y1="117" x2="253" y2="117" style="stroke:rgba(0,0,255,.5);stroke-width:1" />
<line x1="246" y1="101" x2="253" y2="117" style="stroke:rgba(255,0,0,.5);stroke-width:1" />
<line x1="253" y1="117" x2="246" y2="117" style="stroke:rgba(0,255,0,.5);stroke-width:1" />
<line x1="246" y1="117" x2="246" y2="101" style="stroke:rgba(0,0,255,.5);stroke-width:1" />
<line x1="253" y1="117" x2="278" y2="169" style="stroke:rgba(255,0,0,.5);stroke-width:1" />
<line x1="278" y1="169" x2="246" y2="161" style="stroke:rgba(0,255,0,.5);stroke-width:1" />
<line x1="246" y1="161" x2="253" y2="117" style="stroke:rgba(0,0,255,.5);stroke-width:1" />
<line x1="246" y1="117" x2="253" y2="117" style="stroke:rgba(255,0,0,.5);stroke-width:1" />
<line x1="253" y1="117" x2="246" y2="161" style="stroke:rgba(0,255,0,.5);stroke-width:1" />
<line x1="246" y1="161" x2="246" y2="117" style="stroke:rgba(0,0,255,.5);stroke-width:1" />
<line x1="246" y1="161" x2="278" y2="169" style="stroke:rgba(255,0,0,.5);stroke-width:1" />
<line x1="278" y1="169" x2="265" y2="181" style="stroke:rgba(0,255,0,.5);stroke-width:1" />
<line x1="265" y1="181" x2="246" y2="161" style="stroke:rgba(0,0,255,.5);stroke-width:1" />
<line x1="246" y1="161" x2="265" y2="181" style="stroke:rgba(255,0,0,.5);stroke-width:1" />
<line x1="265" y1="181" x2="246" y2="175" style="stroke:rgba(0,255,0,.5);stroke-width:1" />
<line x1="246" y1="175" x2="246" y2="161" style="stroke:rgba(0,0,255,.5);stroke-width:1" />
<line x1="265" y1="181" x2="289" y2="236" style="stroke:rgba(255,0,0,.5);stroke-width:1" />
<line x1="289" y1="236" x2="247" y2="214" style="stroke:rgba(0,255,0,.5);stroke-width:1" />
<line x1="247" y1="214" x2="265" y2="181" style="stroke:rgba(0,0,255,.5);stroke-width:1" />
<line x1="246" y1="175" x2="265" y2="181" style="stroke:rgba(255,0,0,.5);stroke-width:1" />
<line x1="265" y1="181" x2="247" y2="214" style="stroke:rgba(0,255,0,.5);stroke-width:1" />
<line x1="247" y1="214" x2="246" y2="175" style="stroke:rgba(0,0,255,.5);stroke-width:1" />
<line x1="247" y1="214" x2="289" y2="236" style="stroke:rgba(255,0,0,.5);stroke-width:1" />
<line x1="289" y1="236" x2="276" y2="243" style="stroke:rgba(0,255,0,.5);stroke-width:1" />
<line x1="276" y1="243" x2="247" y2="214" style="stroke:rgba(0,0,255,.5);stroke-width:1" />
<line x1="247" y1="214" x2="276" y2="243" style="stroke:rgba(255,0,0,.5);stroke-width:1" />
<line x1="276" y1="243" x2="247" y2="227" style="stroke:rgba(0,255,0,.5);stroke-width:1" />
<line x1="247" y1="227" x2="247" y2="214" style="stroke:rgba(0,0,255,.5);stroke-width:1" />
<line x1="276" y1="243" x2="301" y2="301" style="stroke:rgba(255,0,0,.5);stroke-width:1" />
<line x1="301" y1="301" x2="247" y2="261" style="stroke:rgba(0,255,0,.5);stroke-width:1" />
<line x1="247" y1="261" x2="276" y2="243" style="stroke:rgba(0,0,255,.5);stroke-width:1" />
<line x1="247" y1="227" x2="276" y2="243" style="stroke:rgba(255,0,0,.5);stroke-width:1" />
<line x1="276" y1="243" x2="247" y2="261" style="stroke:rgba(0,255,0,.5);stroke-width:1" />
<line x1="247" y1="261" x2="247" y2="227" style="stroke:rgba(0,0,255,.5);stroke-width:1" />
<line x1="247" y1="261" x2="301" y2="301" style="stroke:rgba(255,0,0,.5);stroke-width:1" />
<line x1="301" y1="301" x2="287" y2="303" style="stroke:rgba(0,255,0,.5);stroke-width:1" />
<line x1="287" y1="303" x2="247" y2="261" style="stroke:rgba(0,0,255,.5);stroke-width:1" />
<line x1="247" y1="261" x2="287" y2="303" style="stroke:rgba(255,0,0,.5);stroke-width:1" />
<line x1="287" y1="303" x2="248" y2="272" style="stroke:rgba(0,255,0,.5);stroke-width:1" />
<line x1="248" y1="272" x2="247" y2="261" style="stroke:rgba(0,0,255,.5);stroke-width:1" />
<line x1="276" y1="243" x2="301" y2="301" style="stroke:rgba(255,0,0,.5);stroke-width:1" />
<line x1="301" y1="301" x2="247" y2="261" style="stroke:rgba(0,255,0,.5);stroke-width:1" />
<line x1="247" y1="261" x2="276" y2="243" style="stroke:rgba(0,0,255,.5);stroke-width:1" />
<line x1="287" y1="303" x2="318" y2="383" style="stroke:rgba(255,0,0,.5);stroke-width:1" />
<line x1="318" y1="383" x2="248" y2="312" style="stroke:rgba(0,255,0,.5);stroke-width:1" />
<line x1="248" y1="312" x2="287" y2="303" style="stroke:rgba(0,0,255,.5);stroke-width:1" />
<line x1="248" y1="272" x2="287" y2="303" style="stroke:rgba(255,0,0,.5);stroke-width:1" />
<line x1="287" y1="303" x2="248" y2="312" style="stroke:rgba(0,255,0,.5);stroke-width:1" />
<line x1="248" y1="312" x2="248" y2="272" style="stroke:rgba(0,0,255,.5);stroke-width:1" />
<line x1="248" y1="312" x2="318" y2="383" style="stroke:rgba(255,0,0,.5);stroke-width:1" />
<line x1="318" y1="383" x2="303" y2="380" style="stroke:rgba(0,255,0,.5);stroke-width:1" />
<line x1="303" y1="380" x2="248" y2="312" style="stroke:rgba(0,0,255,.5);stroke-width:1" />
<line x1="248" y1="312" x2="303" y2="380" style="stroke:rgba(255,0,0,.5);stroke-width:1" />
<line x1="303" y1="380" x2="248" y2="321" style="stroke:rgba(0,255,0,.5);stroke-width:1" />
<line x1="248" y1="321" x2="248" y2="312" style="stroke:rgba(0,0,255,.5);stroke-width:1" />
<line x1="303" y1="380" x2="336" y2="466" style="stroke:rgba(255,0,0,.5);stroke-width:1" />
<line x1="336" y1="466" x2="248" y2="357" style="stroke:rgba(0,255,0,.5);stroke-width:1" />
<line x1="248" y1="357" x2="303" y2="380" style="stroke:rgba(0,0,255,.5);stroke-width:1" />
<line x1="248" y1="321" x2="303" y2="380" style="stroke:rgba(255,0,0,.5);stroke-width:1" />
<line x1="303" y1="380" x2="248" y2="357" style="stroke:rgba(0,255,0,.5);stroke-width:1" />
<line x1="248" y1="357" x2="248" y2="321" style="stroke:rgba(0,0,255,.5);stroke-width:1" />
<line x1="248" y1="357" x2="336" y2="466" style="stroke:rgba(255,0,0,.5);stroke-width:1" />
<line x1="336" y1="466" x2="319" y2="456" style="stroke:rgba(0,255,0,.5);stroke-width:1" />
<line x1="319" y1="456" x2="248" y2="357" style="stroke:rgba(0,0,255,.5);stroke-width:1" />
<line x1="248" y1="357" x2="319" y2="456" style="stroke:rgba(255,0,0,.5);stroke-width:1" />
<line x1="319" y1="456" x2="248" y2="366" style="stroke:rgba(0,255,0,.5);stroke-width:1" />
<line x1="248" y1="366" x2="248" y2="357" style="stroke:rgba(0,0,255,.5);stroke-width:1" />
<line x1="248" y1="366" x2="319" y2="456" style="stroke:rgba(255,0,0,.5);stroke-width:1" />
<line x1="319" y1="456" x2="353" y2="547" style="stroke:rgba(0,255,0,.5);stroke-width:1" />
<line x1="353" y1="547" x2="248" y2="366" style="stroke:rgba(0,0,255,.5);stroke-width:1" />
<line x1="248" y1="366" x2="353" y2="547" style="stroke:rgba(255,0,0,.5);stroke-width:1" />
<line x1="353" y1="547" x2="258" y2="394" style="stroke:rgba(0,255,0,.5);stroke-width:1" />
<line x1="258" y1="394" x2="248" y2="366" style="stroke:rgba(0,0,255,.5);stroke-width:1" />
<line x1="248" y1="366" x2="258" y2="394" style="stroke:rgba(255,0,0,.5);stroke-width:1" />
<line x1="258" y1="394" x2="249" y2="382" style="stroke:rgba(0,255,0,.5);stroke-width:1" />
<line x1="249" y1="382" x2="248" y2="366" style="stroke:rgba(0,0,255,.5);stroke-width:1" />
<line x1="249" y1="382" x2="258" y2="394" style="stroke:rgba(255,0,0,.5);stroke-width:1" />
<line x1="258" y1="394" x2="266" y2="429" style="stroke:rgba(0,255,0,.5);stroke-width:1" />
<line x1="266" y1="429" x2="249" y2="382" style="stroke:rgba(0,0,255,.5);stroke-width:1" />
<line x1="249" y1="382" x2="266" y2="429" style="stroke:rgba(255,0,0,.5);stroke-width:1" />
<line x1="266" y1="429" x2="249" y2="404" style="stroke:rgba(0,255,0,.5);stroke-width:1" />
<line x1="249" y1="404" x2="249" y2="382" style="stroke:rgba(0,0,255,.5);stroke-width:1" />
</svg>